<svg width="76" height="74" viewBox="0 0 76 74" fill="none" xmlns="http://www.w3.org/2000/svg">
<path d="M18.5247 52.725C21.2163 50.7209 24.2247 49.1406 27.5497 47.9844C30.8747 46.8281 34.358 46.25 37.9997 46.25C41.6413 46.25 45.1247 46.8281 48.4497 47.9844C51.7747 49.1406 54.783 50.7209 57.4747 52.725C59.3219 50.6181 60.7601 48.2285 61.7893 45.5563C62.8184 42.8841 63.333 40.032 63.333 37C63.333 30.1653 60.8656 24.3455 55.9309 19.5406C50.9962 14.7358 45.0191 12.3334 37.9997 12.3334C30.9802 12.3334 25.0031 14.7358 20.0684 19.5406C15.1337 24.3455 12.6663 30.1653 12.6663 37C12.6663 40.032 13.1809 42.8841 14.2101 45.5563C15.2393 48.2285 16.6775 50.6181 18.5247 52.725ZM37.9997 40.0834C34.8858 40.0834 32.2601 39.0427 30.1226 36.9615C27.9851 34.8802 26.9163 32.3236 26.9163 29.2917C26.9163 26.2597 27.9851 23.7031 30.1226 21.6219C32.2601 19.5406 34.8858 18.5 37.9997 18.5C41.1136 18.5 43.7393 19.5406 45.8768 21.6219C48.0143 23.7031 49.083 26.2597 49.083 29.2917C49.083 32.3236 48.0143 34.8802 45.8768 36.9615C43.7393 39.0427 41.1136 40.0834 37.9997 40.0834ZM37.9997 67.8334C33.6191 67.8334 29.5025 67.024 25.6497 65.4052C21.7969 63.7865 18.4455 61.5896 15.5955 58.8146C12.7455 56.0396 10.4893 52.7764 8.82676 49.025C7.16426 45.2736 6.33301 41.2653 6.33301 37C6.33301 32.7347 7.16426 28.7264 8.82676 24.975C10.4893 21.2236 12.7455 17.9604 15.5955 15.1854C18.4455 12.4104 21.7969 10.2136 25.6497 8.59481C29.5025 6.97606 33.6191 6.16669 37.9997 6.16669C42.3802 6.16669 46.4969 6.97606 50.3497 8.59481C54.2025 10.2136 57.5538 12.4104 60.4038 15.1854C63.2538 17.9604 65.5101 21.2236 67.1726 24.975C68.8351 28.7264 69.6663 32.7347 69.6663 37C69.6663 41.2653 68.8351 45.2736 67.1726 49.025C65.5101 52.7764 63.2538 56.0396 60.4038 58.8146C57.5538 61.5896 54.2025 63.7865 50.3497 65.4052C46.4969 67.024 42.3802 67.8334 37.9997 67.8334Z" fill="#ACA9A9"/>
</svg>
